<?xml version="1.0" encoding="UTF-8" standalone="yes"?>
<!DOCTYPE svg PUBLIC "-//W3C//DTD SVG 1.1//EN" "http://www.w3.org/Graphics/SVG/1.1/DTD/svg11.dtd">

<svg width="185" height="185" viewBox="0 0 185 185" xmlns="http://www.w3.org/2000/svg" xmlns:xlink="http://www.w3.org/1999/xlink" version="1.1" baseProfile="full">
    <g transform="scale(1.000000,-1.000000) translate(0,-185)">
        <path d="M 1.000000 1.000000 L 186.000000 1.000000 L 186.000000 186.000000 L 1.000000 186.000000 Z" transform="scale(1.000000,1.000000) translate(-1.000000,-1.000000)" fill="#ffffff" opacity="1.000000"></path>
        <path d="M 137.067900 1.041301 L 137.862200 1.162501 L 138.628900 1.359601 L 139.363900 1.628601 L 140.063200 1.965501 L 140.722800 2.366201 L 141.338700 2.826801 L 141.906800 3.343101 L 142.423100 3.911201 L 142.883700 4.527101 L 143.284400 5.186701 L 143.621300 5.886001 L 143.890300 6.621001 L 144.087400 7.387701 L 144.208600 8.182001 L 144.250000 8.999901 L 144.250000 128.899901 L 144.208600 129.717901 L 144.087400 130.512201 L 143.890300 131.278901 L 143.621300 132.013901 L 143.284400 132.713201 L 142.883700 133.372801 L 142.423100 133.988701 L 141.906800 134.556801 L 141.338700 135.073101 L 140.722800 135.533701 L 140.063200 135.934401 L 139.363900 136.271301 L 138.628900 136.540301 L 137.862200 136.737401 L 137.067900 136.858601 L 136.250000 136.899901 L 9.000000 136.899901 L 8.182000 136.858601 L 7.387700 136.737401 L 6.621000 136.540301 L 5.886000 136.271301 L 5.186700 135.934401 L 4.527100 135.533701 L 3.911200 135.073101 L 3.343100 134.556801 L 2.826800 133.988701 L 2.366200 133.372801 L 1.965500 132.713201 L 1.628600 132.013901 L 1.359600 131.278901 L 1.162500 130.512201 L 1.041300 129.717901 L 1.000000 128.899901 L 1.000000 8.999901 L 1.041300 8.182001 L 1.162500 7.387701 L 1.359600 6.621001 L 1.628600 5.886001 L 1.965500 5.186701 L 2.366200 4.527101 L 2.826800 3.911201 L 3.343100 3.343101 L 3.911200 2.826801 L 4.527100 2.366201 L 5.186700 1.965501 L 5.886000 1.628601 L 6.621000 1.359601 L 7.387700 1.162501 L 8.182000 1.041301 L 9.000000 0.999901 L 136.250000 0.999901 Z M 31.113600 107.358201 L 30.448000 107.423801 L 29.791700 107.555001 L 29.144900 107.751901 L 28.507400 108.014401 L 27.879200 108.342501 L 27.260500 108.736301 L 26.651100 109.195701 L 26.350000 109.450001 L 26.095700 109.751101 L 25.636300 110.360501 L 25.242500 110.979201 L 24.914400 111.607401 L 24.651900 112.244901 L 24.455000 112.891701 L 24.323800 113.548001 L 24.258200 114.213601 L 24.250000 114.550001 L 24.258200 114.904401 L 24.323800 115.602901 L 24.455000 116.287301 L 24.651900 116.957601 L 24.914400 117.613801 L 25.242500 118.256001 L 25.636300 118.884101 L 26.095700 119.498201 L 26.350000 119.800001 L 26.651100 120.054201 L 27.260500 120.513601 L 27.879200 120.907401 L 28.507400 121.235501 L 29.144900 121.498001 L 29.791700 121.694901 L 30.448000 121.826101 L 31.113600 121.891701 L 31.450000 121.900001 L 31.786300 121.891701 L 32.451900 121.826101 L 33.108200 121.694901 L 33.755000 121.498001 L 34.392500 121.235501 L 35.020700 120.907401 L 35.639400 120.513601 L 36.248800 120.054201 L 36.550000 119.800001 L 36.804200 119.498801 L 37.263600 118.889401 L 37.657400 118.270701 L 37.985500 117.642501 L 38.248000 117.005001 L 38.444900 116.358201 L 38.576100 115.701901 L 38.641700 115.036301 L 38.650000 114.700001 L 38.641700 114.345501 L 38.576100 113.647001 L 38.444900 112.962601 L 38.248000 112.292301 L 37.985500 111.636101 L 37.657400 110.993901 L 37.263600 110.365801 L 36.804200 109.751701 L 36.550000 109.450001 L 36.248800 109.195701 L 35.639400 108.736301 L 35.020700 108.342501 L 34.392500 108.014401 L 33.755000 107.751901 L 33.108200 107.555001 L 32.451900 107.423801 L 31.786300 107.358201 L 31.450000 107.349901 Z M 28.600000 16.000001 L 28.600000 22.750001 L 28.450000 22.750001 L 28.450000 80.200001 L 16.000000 80.200001 L 16.000000 89.350001 L 38.650000 89.350001 L 38.650000 25.150001 L 50.800000 25.150001 L 50.800000 16.000001 Z M 55.750000 16.000001 L 62.500000 24.700001 L 84.700000 53.800001 L 63.550000 80.200001 L 53.800000 80.200001 L 53.800000 89.350001 L 82.600000 89.350001 L 82.600000 80.200001 L 75.550000 80.200001 L 90.550000 61.300001 L 105.400000 80.200001 L 98.950000 80.200001 L 98.950000 89.350001 L 127.450000 89.350001 L 127.450000 80.200001 L 117.250000 80.200001 L 96.550000 53.800001 L 119.800000 25.150001 L 129.250000 25.150001 L 129.250000 16.000001 L 115.300000 16.000001 L 110.200000 22.750001 L 109.900000 22.750001 L 90.550000 46.450001 L 74.500000 25.150001 L 82.600000 25.150001 L 82.600000 16.000001 Z" transform="scale(1.000000,1.000000) translate(20.000000,23.299999)" fill="#0b1615" opacity="1.000000"></path>
    </g>
</svg>
